<svg xmlns="http://www.w3.org/2000/svg" xmlns:xlink="http://www.w3.org/1999/xlink" width="743" height="730" viewBox="0 0 743 730" fill="none">
<g  clip-path="url(#clip-path-PNxlf-PIlAyRg7U6EQvEF)">
<rect  x="0" y="-1" width="743" height="731" rx="120"    fill="#1F8D31" >
</rect>
<path d="M251.525 201.726C252.585 201.721 253.644 201.715 254.736 201.71C258.287 201.695 261.838 201.694 265.39 201.694C267.936 201.686 270.482 201.678 273.028 201.668C279.946 201.646 286.863 201.638 293.781 201.633C298.103 201.629 302.425 201.623 306.747 201.616C318.723 201.596 330.699 201.58 342.674 201.577C343.44 201.576 344.206 201.576 344.995 201.576C346.548 201.576 348.1 201.575 349.653 201.575C350.423 201.575 351.194 201.575 351.987 201.574C352.759 201.574 353.531 201.574 354.325 201.574C366.825 201.57 379.324 201.543 391.823 201.506C404.667 201.468 417.511 201.449 430.355 201.448C437.562 201.448 444.768 201.439 451.975 201.41C458.755 201.383 465.535 201.382 472.314 201.398C474.8 201.4 477.286 201.393 479.771 201.377C483.17 201.357 486.568 201.367 489.967 201.385C491.435 201.365 491.435 201.365 492.932 201.345C502.401 201.46 510.334 205.334 517 212C521.92 218.605 524.247 224.712 524.261 233.032C524.265 233.716 524.268 234.4 524.272 235.105C524.283 237.385 524.279 239.665 524.275 241.944C524.279 243.584 524.284 245.224 524.29 246.864C524.304 251.31 524.304 255.757 524.302 260.203C524.301 263.921 524.306 267.638 524.31 271.355C524.321 280.13 524.322 288.906 524.316 297.681C524.31 306.718 524.322 315.756 524.343 324.793C524.361 332.564 524.367 340.335 524.364 348.106C524.362 352.742 524.365 357.377 524.378 362.013C524.391 366.377 524.389 370.74 524.376 375.103C524.374 376.699 524.376 378.294 524.385 379.89C524.451 393.639 522.805 404.195 513.477 414.719C501.748 425.933 487.004 424.701 471.923 424.6C469.483 424.601 467.043 424.605 464.602 424.611C458.685 424.62 452.768 424.606 446.851 424.581C439.951 424.553 433.051 424.552 426.151 424.552C413.835 424.551 401.52 424.526 389.205 424.487C377.271 424.45 365.338 424.429 353.404 424.426C352.669 424.426 351.933 424.425 351.176 424.425C350.441 424.425 349.707 424.425 348.951 424.425C347.472 424.424 345.993 424.424 344.515 424.423C343.785 424.423 343.056 424.423 342.304 424.423C330.906 424.419 319.508 424.401 308.109 424.381C303.987 424.374 299.865 424.369 295.743 424.366C288.593 424.36 281.443 424.345 274.292 424.318C271.921 424.31 269.549 424.306 267.178 424.306C263.937 424.305 260.696 424.291 257.455 424.274C256.52 424.277 255.586 424.279 254.623 424.282C243.507 424.192 234.302 421.821 225.953 414.11C219.059 406.626 215.888 399.304 215.853 389.171C215.847 388.141 215.847 388.141 215.842 387.09C215.831 384.791 215.827 382.491 215.823 380.191C215.817 378.542 215.81 376.892 215.803 375.243C215.782 369.826 215.772 364.409 215.762 358.992C215.758 357.125 215.754 355.258 215.749 353.391C215.73 344.618 215.716 335.844 215.708 327.07C215.698 316.955 215.672 306.839 215.631 296.723C215.601 288.897 215.586 281.071 215.583 273.245C215.581 268.574 215.572 263.904 215.547 259.233C215.523 254.835 215.519 250.438 215.529 246.04C215.53 244.431 215.524 242.823 215.51 241.215C215.413 229.237 216.61 219.726 225.074 210.754C233.043 203.497 240.99 201.7 251.525 201.726Z"   fill="#F9F9F9" >
</path>
<path d="M436.158 77.9844C457.903 95.5122 471.803 119.303 476 147C476.243 150.757 476.235 154.494 476.195 158.257C476.192 159.286 476.19 160.315 476.187 161.376C476.176 164.625 476.15 167.875 476.125 171.124C476.115 173.343 476.106 175.562 476.098 177.781C476.077 183.188 476.038 188.593 476 194C463.46 194 450.92 194 438 194C437.986 191.237 437.972 188.475 437.957 185.629C437.926 182.891 437.887 180.154 437.847 177.416C437.824 175.544 437.81 173.671 437.804 171.799C437.73 150.43 433.57 132.306 418.371 116.312C404.073 102.368 387.236 96.4159 367.343 96.5803C350.227 97.1864 332.9 104.816 320.957 117.102C308.72 131.255 303.107 148.856 302.684 167.339C302.665 168.02 302.646 168.701 302.627 169.403C302.56 171.914 302.499 174.426 302.438 176.938C302.293 182.568 302.149 188.198 302 194C289.46 194 276.92 194 264 194C263.907 187.474 263.828 180.951 263.78 174.426C263.76 172.214 263.733 170.003 263.698 167.79C263.187 134.57 273.017 109.629 296.188 85.4375C333.882 48.6856 394.579 45.4609 436.158 77.9844Z"   fill="#F9FAF9" >
</path>
<path d="M409 107C423.9 118.028 435.171 134.461 438 153C438.487 160.285 438.065 167.591 437.75 174.875C437.681 176.835 437.615 178.794 437.55 180.754C437.394 185.504 437.196 190.25 437 195C449.87 195.495 449.87 195.495 463 196C463 196.33 463 196.66 463 197C456.565 197.495 456.565 197.495 450 198C455.28 198.33 460.56 198.66 466 199C466 199.33 466 199.66 466 200C399.67 200 333.34 200 265 200C265 199.67 265 199.34 265 199C265.964 198.974 266.928 198.949 267.922 198.924C271.487 198.83 275.052 198.729 278.617 198.627C280.162 198.584 281.707 198.542 283.253 198.502C285.469 198.445 287.686 198.381 289.902 198.316C290.597 198.299 291.292 198.283 292.008 198.265C295.288 198.435 295.288 198.435 298 197C296.981 196.985 295.961 196.97 294.911 196.955C291.135 196.897 287.359 196.82 283.583 196.737C281.948 196.704 280.313 196.676 278.677 196.653C276.329 196.62 273.981 196.567 271.633 196.511C270.899 196.505 270.166 196.498 269.41 196.492C267.348 196.432 267.348 196.432 264 196C261.453 192.179 261.84 189.237 262.023 184.832C262.061 183.64 262.061 183.64 262.099 182.424C262.181 179.886 262.278 177.349 262.375 174.813C262.433 173.092 262.491 171.371 262.547 169.65C262.687 165.433 262.84 161.217 263 157C263.33 157 263.66 157 264 157C264 169.21 264 181.42 264 194C276.54 194 289.08 194 302 194C301.882 183.157 301.882 183.157 301.73 172.314C301.61 159.634 302.801 147.277 308.25 135.625C308.55 134.961 308.85 134.297 309.159 133.612C311.735 128.126 314.986 123.538 319 119C319.614 118.189 320.227 117.378 320.859 116.543C342.078 91.3362 382.704 89.8341 409 107Z"   fill="#208D31" >
</path>
<path d="M390.176 257.285C399.061 263.479 405.679 271.281 408 282C409.325 292.53 406.913 301.497 400.5 309.937C398.721 312.101 397.062 313.949 394.885 315.717C392.73 317.892 392.73 317.892 392.72 320.967C392.832 322.131 392.944 323.296 393.059 324.496C393.118 325.145 393.177 325.793 393.238 326.461C394.124 335.376 395.621 344.224 397.062 353.063C397.487 355.681 397.909 358.3 398.326 360.92C398.583 362.534 398.844 364.147 399.111 365.759C399.767 369.865 400.33 373.829 400 378C397.408 380.592 396.362 380.253 392.756 380.259C391.114 380.268 391.114 380.268 389.439 380.278C388.253 380.274 387.066 380.27 385.844 380.265C384.631 380.267 383.417 380.269 382.167 380.271C379.598 380.273 377.029 380.269 374.461 380.261C370.517 380.25 366.573 380.26 362.629 380.273C360.138 380.272 357.647 380.269 355.156 380.265C353.377 380.272 353.377 380.272 351.561 380.278C350.466 380.271 349.372 380.265 348.244 380.259C347.278 380.257 346.311 380.255 345.315 380.254C343 380 343 380 341 378C340.966 376.009 340.966 376.009 341.273 373.572C341.383 372.673 341.493 371.773 341.606 370.847C341.736 369.907 341.866 368.968 342 368C342.122 367.112 342.243 366.224 342.369 365.31C342.772 362.486 343.198 359.667 343.629 356.848C343.783 355.826 343.937 354.804 344.095 353.751C344.582 350.521 345.072 347.292 345.562 344.062C346.056 340.808 346.55 337.554 347.04 334.299C347.344 332.282 347.65 330.266 347.958 328.249C348.095 327.341 348.232 326.432 348.373 325.496C348.495 324.698 348.616 323.9 348.741 323.078C349.062 320.853 349.062 320.853 349 318C347.339 316.644 345.678 315.288 344.016 313.934C336.501 306.725 333.018 297.906 332.625 287.687C332.801 278.075 336.296 269.92 343 263C356.999 251.157 373.798 247.611 390.176 257.285Z"   fill="#1F8D30" >
</path>
<path d="M90 490C98.58 490 107.16 490 116 490C122.296 506.457 128.191 523.022 133.963 539.669C137.443 549.698 140.953 559.714 144.523 569.711C144.894 570.75 145.265 571.788 145.647 572.858C147.451 577.909 149.259 582.959 151.073 588.007C151.724 589.829 152.376 591.651 153.027 593.473C153.33 594.31 153.632 595.148 153.944 596.01C156 601.773 156 601.773 156 604C148.41 604 140.82 604 133 604C130.102 596.755 127.468 589.403 125 582C110.81 581.67 96.62 581.34 82 581C81.01 584.96 80.02 588.92 79 593C76.2 602.8 76.2 602.8 75 604C73.2923 604.087 71.581 604.107 69.8711 604.098C68.3194 604.093 68.3194 604.093 66.7363 604.088C65.6477 604.08 64.5591 604.071 63.4375 604.062C61.7988 604.056 61.7988 604.056 60.127 604.049C57.4179 604.037 54.709 604.021 52 604C52.6103 599.745 53.5988 595.88 55.0027 591.819C55.4183 590.609 55.834 589.399 56.2623 588.153C56.7203 586.835 57.1785 585.517 57.6367 584.199C58.1138 582.816 58.5904 581.432 59.0666 580.049C60.0779 577.114 61.092 574.179 62.1086 571.246C63.6897 566.683 65.2645 562.119 66.8381 557.553C68.4095 552.996 69.9812 548.438 71.5552 543.881C75.8773 531.368 80.1665 518.844 84.4375 506.312C85.021 504.602 85.6046 502.891 86.1882 501.18C87.4596 497.454 88.7298 493.727 90 490Z"   fill="#FBFDFB" >
</path>
<path d="M509.062 495.625C515.594 500.835 520.097 507.817 522 516C522.024 517.667 522.028 519.334 522 521C514.315 521.675 506.716 522.157 499 522C498.743 521.325 498.487 520.649 498.223 519.953C496.194 515.227 494.573 511.688 489.812 509.375C483.276 507.095 476.939 506.826 470.562 509.688C467.216 511.639 465.262 513.215 464 517C463.652 520.292 463.902 522.874 465 526C470.496 531.467 478.916 532.941 486.125 534.875C514.253 542.86 514.253 542.86 521 554C525.156 562.177 525.209 571.051 522.438 579.688C518.72 588.845 511.242 596.32 502.152 600.223C499.451 601.216 496.745 602.135 494 603C493.01 603.33 492.02 603.66 491 604C476.3 605.199 462.33 604.699 450.031 595.742C442.405 589.202 439.166 581.715 437 572C437 571.01 437 570.02 437 569C444.59 569 452.18 569 460 569C460.99 571.64 461.98 574.28 463 577C465.223 579.548 466.979 581.489 470 583C484.077 583.95 484.077 583.95 497 579C499.115 575.827 499.319 574.798 499.375 571.125C499.418 569.86 499.418 569.86 499.461 568.57C498.825 565.023 497.572 563.514 495 561C492.581 559.793 490.407 558.863 487.875 558C487.181 557.75 486.486 557.5 485.771 557.242C480.457 555.377 475.065 553.883 469.625 552.438C458.067 549.334 449.438 545.778 442.906 535.234C439.577 528.144 439.835 518.771 441.656 511.313C445.281 502.313 452.477 495.406 461 491C475.934 484.708 495.679 486.691 509.062 495.625Z"   fill="#FBFDFC" >
</path>
<path d="M604.094 496.461C610.868 501.845 614.807 508.482 615.813 517.125C615.874 518.404 615.936 519.682 616 521C608.309 521.752 600.728 522.137 593 522C592.608 520.763 592.216 519.525 591.813 518.25C589.965 513.341 587.314 511.322 582.813 508.75C577.322 507.286 571.489 507.153 566.125 509.188C562.676 511.188 560.939 512.51 559 516C558.168 520.228 558.309 522.916 560.656 526.598C563.368 529.377 565.326 530.232 569 531.438C570.234 531.85 571.467 532.263 572.738 532.688C575.806 533.651 578.889 534.552 581.98 535.438C607.943 542.884 607.943 542.884 616 555C619.269 562.941 619.097 571.635 616.438 579.75C611.996 590.381 605.168 596.371 594.758 600.996C582.474 605.84 565.707 606.234 553.442 601.262C543.93 596.346 537.64 589.575 533.762 579.625C533 577 533 577 532 570C539.59 570 547.18 570 555 570C555.99 572.64 556.98 575.28 558 578C563.077 582.829 566.823 583.231 573.625 583.312C574.407 583.341 575.19 583.37 575.996 583.4C582.712 583.473 587.844 581.663 593 577.312C594.583 573.653 594.835 569.897 594 566C591.182 561.372 587.843 559.694 582.875 558C582.181 557.75 581.486 557.5 580.771 557.242C575.457 555.377 570.065 553.883 564.625 552.438C554.108 549.613 545.216 546.531 539 537C536.299 531.731 535.45 527.49 535.5 521.688C535.504 520.943 535.507 520.198 535.511 519.431C535.703 513.029 537.33 508.292 541 503C541.866 501.639 541.866 501.639 542.75 500.25C558.773 484.227 585.946 483.798 604.094 496.461Z"   fill="#FCFDFC" >
</path>
<path d="M417.938 528.688C423.437 534.173 425.22 540.118 425.454 547.805C425.453 550.426 425.432 553.04 425.391 555.66C425.383 557.06 425.378 558.459 425.374 559.859C425.358 563.514 425.319 567.168 425.275 570.823C425.233 574.563 425.215 578.304 425.195 582.045C425.153 589.364 425.082 596.682 425 604C418.4 604 411.8 604 405 604C404.97 601.532 404.97 601.532 404.94 599.015C404.864 592.917 404.775 586.819 404.683 580.721C404.644 578.081 404.609 575.441 404.578 572.8C404.533 569.007 404.474 565.215 404.414 561.422C404.402 560.24 404.391 559.057 404.379 557.839C404.359 556.738 404.339 555.637 404.319 554.503C404.306 553.535 404.292 552.567 404.279 551.569C403.985 548.864 403.507 547.256 402 545C397.202 542.366 393.546 541.319 388 542C381.942 544.118 377.924 547.151 375 553C374.881 554.633 374.823 556.271 374.795 557.909C374.775 558.93 374.755 559.951 374.734 561.002C374.709 562.66 374.709 562.66 374.684 564.352C374.663 565.481 374.642 566.61 374.621 567.773C374.555 571.391 374.496 575.008 374.438 578.625C374.394 581.073 374.351 583.521 374.307 585.969C374.199 591.979 374.098 597.99 374 604C367.4 604 360.8 604 354 604C354 577.27 354 550.54 354 523C358.29 523 362.58 523 367 523C367.99 525.64 368.98 528.28 370 531C370.701 530.518 371.402 530.036 372.125 529.539C386.121 520.221 403.665 517.832 417.938 528.688Z"   fill="#FCFDFC" >
</path>
<path d="M164 490C171.59 490 179.18 490 187 490C187 520.69 187 551.38 187 583C201.19 583 215.38 583 230 583C230 589.93 230 596.86 230 604C221.542 604.023 213.085 604.041 204.627 604.052C200.7 604.057 196.773 604.064 192.846 604.075C189.06 604.086 185.273 604.092 181.487 604.095C180.039 604.097 178.591 604.1 177.143 604.106C175.122 604.113 173.101 604.113 171.08 604.114C169.352 604.117 169.352 604.117 167.588 604.12C165 604 165 604 164 603C163.904 601.533 163.878 600.06 163.88 598.59C163.878 597.638 163.877 596.685 163.876 595.704C163.879 594.651 163.883 593.598 163.886 592.513C163.886 591.411 163.886 590.309 163.886 589.173C163.887 585.51 163.895 581.847 163.902 578.184C163.904 575.651 163.906 573.12 163.907 570.587C163.91 564.591 163.918 558.596 163.928 552.6C163.939 545.775 163.945 538.951 163.95 532.126C163.96 518.084 163.978 504.042 164 490Z"   fill="#F9FCFA" >
</path>
<path d="M630 490C637.59 490 645.18 490 653 490C653 520.69 653 551.38 653 583C666.86 583 680.72 583 695 583C695 589.93 695 596.86 695 604C673.55 604 652.1 604 630 604C630 566.38 630 528.76 630 490Z"   fill="#F9FCFA" >
</path>
<path d="M242 490C249.26 490 256.52 490 264 490C264 520.69 264 551.38 264 583C278.19 583 292.38 583 307 583C307 589.93 307 596.86 307 604C285.55 604 264.1 604 242 604C242 566.38 242 528.76 242 490Z"   fill="#FCFDFD" >
</path>
<path d="M317 523C323.93 523 330.86 523 338 523C338 549.73 338 576.46 338 604C331.4 604 324.8 604 318 604C316.28 602.28 316.88 600.091 316.876 597.799C316.879 597.054 316.883 596.31 316.886 595.543C316.886 594.762 316.886 593.982 316.886 593.178C316.887 590.586 316.895 587.994 316.902 585.402C316.904 583.61 316.906 581.818 316.907 580.026C316.91 575.299 316.92 570.573 316.931 565.846C316.942 561.027 316.946 556.208 316.951 551.389C316.962 541.926 316.979 532.463 317 523Z"   fill="#F8FBF8" >
</path>
<path d="M103 514C104.654 516.48 105.46 518.036 106.329 520.781C106.569 521.532 106.809 522.283 107.056 523.057C107.308 523.863 107.561 524.669 107.82 525.5C108.216 526.748 108.216 526.748 108.619 528.021C109.174 529.779 109.727 531.538 110.278 533.297C111.122 535.992 111.977 538.683 112.832 541.375C113.37 543.083 113.908 544.792 114.445 546.5C114.83 547.709 114.83 547.709 115.222 548.943C116.192 552.06 117 554.716 117 558C108.09 558 99.18 558 90 558C91.2362 551.819 92.4475 546.037 94.3477 540.094C94.5644 539.402 94.7812 538.711 95.0045 537.999C95.4567 536.56 95.9114 535.121 96.3684 533.684C97.0694 531.478 97.7628 529.271 98.4551 527.062C98.898 525.656 99.3413 524.25 99.7852 522.844C99.9925 522.185 100.2 521.527 100.413 520.849C101.165 518.489 101.89 516.219 103 514Z"   fill="#1C892C" >
</path>
<path d="M333 490C336.535 492.02 338.769 494.084 340 498C340.531 501.517 340.693 503.896 338.762 506.973C335.774 510.583 333.786 512.682 328.914 513.238C324.878 513.369 322.606 513.361 319.062 511.25C315.46 507.32 314.493 504.516 314.605 499.035C315.313 495.383 317.375 493.562 320 491C323.94 489.03 328.705 489.547 333 490Z"   fill="#FAFCFA" >
</path>
<path d="M562 604C564.792 603.919 567.582 603.86 570.375 603.812C571.169 603.787 571.963 603.762 572.781 603.736C574.856 603.71 576.931 603.845 579 604C579.66 604.99 580.32 605.98 581 607C578.771 607.054 576.542 607.093 574.312 607.125C572.45 607.16 572.45 607.16 570.551 607.195C567.188 607.01 565.001 606.458 562 605C562 604.67 562 604.34 562 604Z"   fill="#298E37" >
</path>
<path d="M561 512C562 514 562 514 561.441 516.164C561.151 516.976 560.861 517.788 560.562 518.625C560.275 519.442 559.988 520.26 559.691 521.102C559.463 521.728 559.235 522.354 559 523C558.67 523 558.34 523 558 523C557.631 516.6 557.631 516.6 559.5 513.562C559.995 513.047 560.49 512.531 561 512Z"   fill="#0F7917" >
</path>
<path d="M425 70C431.646 71.4769 431.646 71.4769 433.438 74.125C433.716 75.0531 433.716 75.0531 434 76C430.063 74.6878 427.773 73.0809 425 70Z"   fill="#147F1E" >
</path>
</g>
<defs>
<clipPath id="clip-path-PNxlf-PIlAyRg7U6EQvEF">
<path d="M0 730L743 730L743 0L0 0L0 730Z" fill="white"/>
</clipPath>
</defs>
</svg>
