<svg t="1748156505578" class="icon" viewBox="0 0 1024 1024" version="1.1" xmlns="http://www.w3.org/2000/svg" p-id="32184" width="256" height="256"><path d="M0 0h1024v1024H0z" fill="#7aaeeb" fill-opacity="0" p-id="32185"></path><path d="M587.562667 896l-2.474667-0.085333a43.52 43.52 0 0 1-39.68-32.064l-82.773333-300.949334-302.656-84.373333a43.626667 43.626667 0 0 1-31.914667-39.957333 43.669333 43.669333 0 0 1 27.797333-42.922667L836.416 130.986667a43.733333 43.733333 0 0 1 56.618667 56.618666l-264.725334 680.533334A44.010667 44.010667 0 0 1 587.562667 896zM203.136 434.858667l303.168 84.522666 82.88 301.290667L834.816 189.162667 203.136 434.858667z" fill="#7aaeeb" fill-opacity=".65" p-id="32186"></path></svg>