<svg t="1748156926781" class="icon" viewBox="0 0 1024 1024" version="1.1" xmlns="http://www.w3.org/2000/svg" p-id="40271" width="256" height="256"><path d="M800.256 756.736H215.722667a68.266667 68.266667 0 0 1-68.266667-68.266667V235.52a68.266667 68.266667 0 0 1 68.266667-68.266667h584.533333a68.266667 68.266667 0 0 1 68.266667 68.266667v452.778667a68.266667 68.266667 0 0 1-68.266667 68.437333zM215.722667 219.648a15.701333 15.701333 0 0 0-15.701334 15.701333v452.949334a15.872 15.872 0 0 0 15.701334 15.872h584.533333a15.872 15.872 0 0 0 15.872-15.872V235.52a15.872 15.872 0 0 0-15.872-15.872z" fill="#7aaeeb" p-id="40272"></path><path d="M676.522667 851.626667H339.456a26.453333 26.453333 0 0 1 0-52.736h337.066667a26.453333 26.453333 0 1 1 0 52.736z" fill="#7aaeeb" p-id="40273"></path><path d="M563.2 582.997333h-3.072a26.453333 26.453333 0 0 1-21.504-17.066666l-71.68-186.368-76.288 127.829333a26.453333 26.453333 0 0 1-22.528 12.8h-85.333333a26.453333 26.453333 0 0 1 0-52.736h69.632l96.256-161.28a26.453333 26.453333 0 0 1 36.181333-9.045333 26.624 26.624 0 0 1 11.093333 12.970666l73.898667 190.805334 28.842667-41.472a26.282667 26.282667 0 0 1 21.674666-11.434667h111.616a26.453333 26.453333 0 0 1 0 52.736H634.88l-49.322667 70.997333a26.453333 26.453333 0 0 1-22.357333 11.264z" fill="#7aaeeb" p-id="40274"></path></svg>