<svg t="1748156239695" class="icon" viewBox="0 0 1024 1024" version="1.1" xmlns="http://www.w3.org/2000/svg" p-id="27189" width="256" height="256"><path d="M0 0h1024v1024H0z" fill="#ffffff00" p-id="27190"></path><path d="M361.376 617.376a32 32 0 0 0 45.248 45.248l-45.248-45.248z m301.248-210.752a32 32 0 0 0-45.248-45.248l45.248 45.248zM622.72 147.552l-22.624-22.624 22.624 22.624z m248.896 248.896l-22.624-22.624 22.624 22.624z m-402.24-140.8a32 32 0 1 0 45.216 45.28L469.344 255.68z m-72.928 616l-22.624-22.656 22.624 22.624z m-248.896 0l22.624-22.656-22.624 22.624z m0-248.928l22.624 22.624-22.624-22.624z m402.592 140.48a32 32 0 0 0-45.248-45.28l45.248 45.248z m197.024-287.552a32 32 0 1 0 45.28 45.248l-45.28-45.248zM294.624 520.896a32 32 0 1 0-45.248-45.248l45.248 45.248z m112 141.76l256-256-45.248-45.28-256 256 45.248 45.248z m238.72-492.48a144 144 0 0 1 203.648 0l45.248-45.248a208 208 0 0 0-294.144 0l45.248 45.248z m203.648 0a144 144 0 0 1 0 203.648l45.248 45.248a208 208 0 0 0 0-294.144l-45.248 45.248z m-248.896-45.248L469.344 255.68l45.248 45.248 130.752-130.752-45.248-45.248zM373.824 848.96a144 144 0 0 1-203.648 0l-45.248 45.28a208 208 0 0 0 294.144 0l-45.248-45.28z m-203.648 0a144 144 0 0 1 0-203.648l-45.248-45.248a208 208 0 0 0 0 294.144l45.248-45.248z m248.896 45.28l131.072-131.104-45.248-45.248-131.072 131.072 45.248 45.28z m429.92-520.448l-101.824 101.824 45.28 45.248 101.792-101.824-45.248-45.248zM170.176 645.344l124.48-124.448-45.28-45.248-124.48 124.48 45.28 45.216z" fill="#7aaeeb" p-id="27191"></path></svg>